<svg width="21" height="21" viewBox="0 0 21 21" fill="none" xmlns="http://www.w3.org/2000/svg">
<path d="M19.1727 6.02086C18.3595 4.2971 17.0716 2.84961 15.449 1.83403C13.1921 0.425452 10.5189 -0.0220252 7.92745 0.577205C5.33597 1.17254 3.12971 2.74455 1.72113 5.00139C0.308659 7.25824 -0.138819 9.92754 0.460412 12.5229C1.05964 15.1144 2.63165 17.3206 4.8846 18.7292C6.47217 19.7215 8.29321 20.2468 10.1571 20.2468H10.2777C12.1337 20.2234 13.9392 19.6864 15.5034 18.6981C15.9587 18.4102 16.091 17.8109 15.8031 17.3557C15.5151 16.9004 14.9159 16.7681 14.4606 17.056C13.2038 17.8537 11.7485 18.2856 10.2543 18.3051C8.72123 18.3245 7.22316 17.9004 5.91574 17.0872C4.0986 15.951 2.83399 14.1766 2.35538 12.091C1.87677 10.0054 2.23476 7.85747 3.37096 6.04032C5.71341 2.29318 10.6707 1.1492 14.4178 3.49164C15.7252 4.30878 16.7603 5.47222 17.414 6.85745C18.0521 8.20767 18.3011 9.70574 18.1338 11.1844C18.0755 11.7174 18.4568 12.1999 18.9938 12.2583C19.5268 12.3167 20.0093 11.9353 20.0677 11.3984C20.2739 9.55788 19.9626 7.69793 19.1727 6.02086V6.02086Z" fill="#1AB700"/>
<path d="M13.3826 6.90417L8.68988 11.5968L6.95056 9.85752C6.56923 9.47619 5.95443 9.47619 5.57311 9.85752C5.19178 10.2388 5.19178 10.8536 5.57311 11.235L8.00115 13.663C8.19182 13.8537 8.44085 13.9471 8.68988 13.9471C8.93891 13.9471 9.18794 13.8537 9.3786 13.663L14.7561 8.28162C15.1374 7.90029 15.1374 7.2855 14.7561 6.90417C14.3748 6.52673 13.76 6.52673 13.3826 6.90417Z" fill="#1AB700"/>
</svg>
